<svg xmlns="http://www.w3.org/2000/svg" xmlns:xlink="http://www.w3.org/1999/xlink" version="1.1" id="Calque_1" x="0px" y="0px" width="645.064px" height="1158.116px" viewBox="0 0 645.064 1158.116" enable-background="new 0 0 645.064 1158.116" xml:space="preserve">
<g>
	<g>
		<path d="M154.467,997.516c0,18.33-3.357,33.618-10.115,46.052c-7.87,14.869-20.015,24.228-36.262,28.131    c-6.999,1.837-15.188,2.708-24.396,2.708H30.885V922.514h50.333c11.751,0,20.801,0.65,26.961,2.005    c19.317,4.647,32.8,16.818,40.365,36.829C152.531,971.923,154.467,983.896,154.467,997.516 M133.728,997.127    c0-28.896-8.903-46.744-26.819-53.732c-5.482-2.058-14.186-3.147-26.106-3.147H50.999V1056.6h30.397    c17.665,0,30.015-3.62,37.165-10.87C128.718,1035.688,133.728,1019.55,133.728,997.127"/>
		<path d="M309.407,998.638c0,14.606-2.796,27.774-8.468,39.505c-6.312,13.032-15.256,22.864-27.249,29.453    c-11.396,6.243-23.708,9.297-36.882,9.297c-13.997,0-26.657-3.222-37.752-9.821c-11.484-6.757-20.219-16.379-26.237-28.803    c-5.818-11.856-8.683-24.521-8.683-38.024c0-23.725,6.049-42.779,18.226-57.186c13.053-15.593,31.152-23.314,54.567-23.314    c13.956,0,26.347,3.231,37.364,9.675c11.447,6.651,20.109,15.844,26.122,28.119C306.416,969.574,309.407,983.298,309.407,998.638     M288.705,998.596c0-25.779-8.168-43.639-24.532-53.933c-8.011-5.025-17.056-7.606-27.103-7.606    c-17.984,0-31.53,6.338-40.455,19.013c-7.796,11.08-11.715,25.886-11.715,44.446c0,17.062,4.26,30.88,12.795,41.615    c9.444,11.74,22.439,17.648,38.996,17.648c17.193,0,30.418-6.012,39.673-18.269    C284.549,1030.568,288.705,1016.245,288.705,998.596"/>
		<path d="M445.334,1010.222c0,13.967-1.401,24.815-4.071,32.979c-7.393,22.37-25.87,33.692-55.349,33.692    c-28.288,0-46.441-9.422-54.268-28.603c-4.013-9.423-5.938-22.035-5.938-38.068v-80.51c-0.593-5.403,2.486-7.954,9.406-7.954    c2.624,0,5.068,0.62,7.203,2.036c2.298,1.448,3.567,3.441,3.567,5.918v80.426c0,10.955,0.646,19.233,2.114,24.532    c4.48,16.086,16.51,24.101,36.121,24.101c16.332,0,27.522-4.039,33.435-12.307c5.079-6.999,7.66-19.16,7.66-36.326v-80.426    c0-2.402,1.233-4.249,3.684-5.697c1.952-1.248,4.296-1.71,6.961-1.71c6.322,0,9.475,2.317,9.475,7.407V1010.222z"/>
		<path d="M593.375,1072.654c0.719,1.605-0.86,2.654-4.554,3.441c-2.56,0.482-4.701,0.798-6.768,0.798    c-6.19,0-9.931-1.354-11.515-4.239l-21.138-56.692h-55.265l-20.13,56.168c-0.935,2.729-5.047,4.082-11.999,4.082    c-6.936,0-10.005-1.354-9.244-4.082l55.485-143.393c1.983-4.218,6.301-6.149,12.733-6.149c7.093,0,11.442,1.932,13.111,6.149    L593.375,1072.654z M543.792,999.593l-22.633-53.396l-20.618,53.396H543.792z"/>
		<path d="M616.952,1070.262c0,4.081-3.416,5.959-10.1,5.959c-6.7,0-10.063-1.878-10.063-5.959V928.737    c0-2.478,1.286-4.512,3.882-5.939c2.104-1.175,4.486-1.794,7.198-1.794c6.069,0,9.082,2.676,9.082,7.733V1070.262z"/>
		<path fill="#87888A" d="M66.958,1127.006c-2.917,6.651-8.221,9.947-15.864,9.947c-8.537,0-14.245-3.579-17.361-10.641    c-1.495-3.474-2.125-7.177-2.125-11.217c0-8.939,3.091-15.204,9.528-18.655c3.043-1.668,6.411-2.749,10.063-2.749    c6.899,0,11.873,2.844,14.868,8.32c0.126,0.168,0.178,0.452,0.178,0.776c0,0.725-0.32,1.27-1.133,2.088    c-0.619,0.525-1.338,0.756-2.093,0.756c-0.829,0-1.553-0.23-1.91-1.175c-2.056-3.936-5.335-5.813-10.015-5.813    c-3.054,0-5.52,0.641-7.75,1.92c-2.319,1.616-3.897,3.652-4.742,6.411c-0.971,2.718-1.364,5.425-1.364,8.038    c0,7.681,2.104,12.727,6.432,15.224c2.114,1.28,4.448,1.91,7.035,1.91c5.461,0,9.149-2.382,11.148-7.324    c0.425-1.237,1.165-1.846,2.271-1.846c0.771,0,1.501,0.304,2.178,0.912c0.482,0.557,0.85,1.28,0.85,2.173    C67.152,1126.471,67.121,1126.702,66.958,1127.006"/>
		<path fill="#87888A" d="M85.184,1135.011c0,1.343-1.034,1.805-2.844,1.805c-1.863,0-2.696-0.462-2.696-1.805v-38.717    c0-0.725,0.373-1.154,0.944-1.521c0.683-0.441,1.369-0.599,2.057-0.599c1.605,0,2.54,0.851,2.54,2.12V1135.011z"/>
		<path fill="#87888A" d="M126.824,1097.207c0,1.521-0.356,2.276-1.191,2.276h-10.918v36.116c0,0.902-0.902,1.27-2.907,1.27    c-1.773,0-2.56-0.367-2.56-1.27v-36.116H98.289c-0.823,0-1.353-0.786-1.353-2.476c0-1.553,0.53-2.309,1.353-2.309h27.344    C126.468,1094.699,126.824,1095.455,126.824,1097.207"/>
		<path fill="#87888A" d="M166.46,1136.354h-28.902v-41.655h28.776c1.091,0,1.784,0.756,1.784,2.34c0,1.658-0.693,2.444-1.784,2.444    h-23.278v12.834h16.993c1.526,0,2.287,0.828,2.287,2.382c0,1.667-0.761,2.476-2.287,2.476h-16.993v14.071h23.404    c1.532,0,2.188,0.818,2.188,2.412c0,0.766-0.158,1.207-0.53,1.732C167.651,1136.083,167.026,1136.354,166.46,1136.354"/>
		<path fill="#87888A" d="M239.096,1115.191c0,5.005-0.908,9.202-2.765,12.602c-2.235,3.978-5.551,6.684-9.926,7.649    c-1.947,0.641-4.245,0.912-6.736,0.912h-14.496v-41.666h13.782c3.216,0,5.761,0.188,7.466,0.535    c5.314,1.27,8.977,4.639,11.059,10.168C238.56,1108.108,239.096,1111.34,239.096,1115.191 M233.456,1115.096    c0-7.963-2.529-12.905-7.434-14.805c-1.427-0.43-3.924-0.797-7.177-0.797h-8.1v31.751h8.342c4.748,0,8.189-0.851,10.094-2.907    C232.05,1125.706,233.456,1121.13,233.456,1115.096"/>
		<path fill="#87888A" d="M278.458,1136.354h-28.881v-41.655h28.734c1.044,0,1.716,0.756,1.716,2.34    c0,1.658-0.672,2.444-1.716,2.444H255.05v12.834h17.061c1.532,0,2.151,0.828,2.151,2.382c0,1.667-0.619,2.476-2.151,2.476H255.05    v14.071h23.409c1.485,0,2.204,0.818,2.204,2.412c0,0.766-0.173,1.207-0.493,1.732    C279.676,1136.083,279.062,1136.354,278.458,1136.354"/>
		<path fill="#87888A" d="M323.619,1124.446c0,2.382-0.671,4.722-2.078,6.536c-1.28,1.921-3.053,3.4-5.33,4.208    c-2.471,1.259-5.074,1.773-8.043,1.773c-7.35,0-12.591-2.203-15.471-6.642c-1.044-1.711-1.668-3.19-1.794-4.932    c-0.11-0.577,0.246-0.997,1.122-1.344c0.503-0.157,1.013-0.304,1.8-0.304c1.442,0,2.146,0.377,2.267,1.102    c0.388,2.696,2.24,4.712,5.408,5.949c2.131,0.724,4.365,1.207,6.458,1.207c4.333,0,7.392-1.091,9.071-3.609    c0.824-0.913,1.259-2.151,1.259-3.547c0-2.529-1.652-4.543-4.937-5.708c-1.332-0.566-3.866-1.385-7.769-2.141    c-3.421-0.839-5.976-1.594-7.686-2.655c-3.893-1.951-5.886-5.078-5.886-8.938c0-2.215,0.655-4.48,1.946-6.201    c1.27-1.826,2.896-2.959,5.074-3.925c2.277-0.913,4.89-1.574,7.596-1.574c6.558,0,11.091,2.068,13.646,6.149    c1.065,1.437,1.595,3.188,1.595,4.868c0,0.472-0.399,0.86-1.253,1.144c-0.593,0.211-1.217,0.325-1.857,0.325    c-1.27,0-2.041-0.388-2.12-1.07c-1.023-4.364-4.197-6.306-9.811-6.306c-2.445,0-4.543,0.273-6.248,1.218    c-2.198,1.007-3.243,2.686-3.243,5.058c0,2.046,1.155,3.766,3.594,4.795c0.902,0.461,3.085,0.964,6.379,1.899    c4.407,0.912,7.508,1.814,9.176,2.434C321.232,1116.439,323.619,1119.882,323.619,1124.446"/>
		<path fill="#87888A" d="M380.893,1098.644c-4.722,0-8.426,1.386-10.844,4.145c-2.958,3.117-4.317,7.355-4.317,12.538    c0,7.367,2.529,12.299,7.534,14.785c2.397,1.237,5.042,1.752,7.749,1.752c2.051,0,4.223-0.347,6.531-0.954    c2.287-0.892,4.161-1.89,5.624-3.284v-8.479h-12.276c-1.406,0-2.109-0.997-2.109-2.497c0-1.605,0.745-2.508,2.23-2.508h17.695    v21.437c-0.209,1.3-0.997,1.962-2.597,1.962c-1.721,0-2.676-0.662-2.885-1.962v-1.595c-3.804,2.057-7.696,2.97-11.883,2.97    c-4.035,0-7.612-0.693-10.901-2.445c-3.468-1.773-6.013-4.417-7.828-7.817c-1.679-3.39-2.565-6.987-2.565-10.955    c0-4.122,0.808-7.89,2.423-11.237c1.663-3.776,4.213-6.264,7.429-8.026c3.227-1.699,6.936-2.78,10.991-2.78    c6.39,0,11.001,1.94,13.876,5.697c0.724,0.829,1.302,1.795,1.663,2.707c0.063,0.241,0.132,0.472,0.132,0.777    c0,0.796-0.242,1.343-0.803,2.003c-0.619,0.525-1.28,0.756-1.999,0.756c-0.839,0-1.317-0.23-1.7-0.913    C389.896,1100.554,386.208,1098.644,380.893,1098.644"/>
		<path fill="#87888A" d="M438.964,1136.354h-28.86v-41.655h28.734c1.181,0,1.742,0.756,1.742,2.34c0,1.658-0.561,2.444-1.742,2.444    h-23.283v12.834h17.145c1.433,0,2.098,0.828,2.098,2.382c0,1.667-0.666,2.476-2.098,2.476h-17.145v14.071h23.409    c1.538,0,2.267,0.818,2.267,2.412c0,0.766-0.178,1.207-0.614,1.732C440.198,1136.083,439.558,1136.354,438.964,1136.354"/>
		<path fill="#87888A" d="M487.021,1135.809c0.242,0.451-0.184,0.692-1.17,0.954c-0.718,0.115-1.39,0.2-1.92,0.2    c-1.625,0-2.722-0.325-3.126-1.154l-5.823-15.582h-15.167l-5.461,15.352c-0.32,0.87-1.422,1.228-3.358,1.228    c-1.825,0-2.785-0.357-2.602-1.228l15.298-39.284c0.614-1.071,1.706-1.596,3.431-1.596c1.937,0,3.206,0.524,3.573,1.596    L487.021,1135.809z M473.486,1115.736l-6.295-14.699l-5.625,14.699H473.486z"/>
		<path fill="#87888A" d="M529.889,1134.833c0,1.07-0.54,1.615-1.469,1.615c-1.757,0-4.05-1.825-6.521-5.215l-19.517-26.231v29.559    c0,0.545-0.461,1.038-1.154,1.637c-0.593,0.251-1.322,0.44-1.883,0.44c-1.548,0-2.23-0.598-2.23-2.077v-38.445    c0-1.176,0.514-1.857,1.511-1.857c1.726,0,3.646,1.291,5.467,3.809l20.528,27.9v-29.999c0-1.195,0.803-2.066,2.535-2.066    c1.804,0,2.733,0.871,2.733,2.066V1134.833z"/>
		<path fill="#87888A" d="M572.657,1097.207c0,1.521-0.31,2.276-1.049,2.276h-10.954v36.116c0,0.902-0.981,1.27-2.813,1.27    c-1.826,0-2.707-0.367-2.707-1.27v-36.116h-10.928c-0.839,0-1.264-0.786-1.264-2.476c0-1.553,0.425-2.309,1.264-2.309h27.402    C572.347,1094.699,572.657,1095.455,572.657,1097.207"/>
	</g>
	<g>
		<defs>
			<rect id="SVGID_1_" x="26.462" y="18.215" width="593.853" height="1119.325"/>
		</defs>
		<clipPath id="SVGID_2_">
			<use xlink:href="#SVGID_1_" overflow="visible"/>
		</clipPath>
		<path clip-path="url(#SVGID_2_)" fill="#87888A" d="M616.726,1124.446c0,2.382-0.656,4.722-1.978,6.536    c-1.264,1.921-3.069,3.4-5.283,4.208c-2.482,1.259-5.121,1.773-8.085,1.773c-7.376,0-12.585-2.203-15.424-6.642    c-1.122-1.711-1.673-3.19-1.846-4.932c-0.068-0.577,0.304-0.997,1.123-1.344c0.545-0.157,1.028-0.304,1.826-0.304    c1.333,0,2.125,0.377,2.256,1.102c0.409,2.696,2.192,4.712,5.445,5.949c2.046,0.724,4.265,1.207,6.332,1.207    c4.392,0,7.481-1.091,9.208-3.609c0.792-0.913,1.191-2.151,1.191-3.547c0-2.529-1.584-4.543-4.89-5.708    c-1.343-0.566-3.93-1.385-7.827-2.141c-3.39-0.839-5.902-1.594-7.649-2.655c-3.945-1.951-5.892-5.078-5.892-8.938    c0-2.215,0.635-4.48,1.899-6.201c1.259-1.826,2.943-2.959,5.136-3.925c2.283-0.913,4.811-1.574,7.597-1.574    c6.548,0,11.096,2.068,13.646,6.149c1.028,1.437,1.589,3.188,1.589,4.868c0,0.472-0.424,0.86-1.244,1.144    c-0.65,0.211-1.322,0.325-1.862,0.325c-1.395,0-2.003-0.388-2.119-1.07c-1.128-4.364-4.329-6.306-9.784-6.306    c-2.503,0-4.581,0.273-6.264,1.218c-2.298,1.007-3.311,2.686-3.311,5.058c0,2.046,1.181,3.766,3.588,4.795    c0.897,0.461,3.101,0.964,6.348,1.899c4.454,0.912,7.56,1.814,9.265,2.434C614.465,1116.439,616.726,1119.882,616.726,1124.446"/>
		<path clip-path="url(#SVGID_2_)" fill="#9C9E9F" d="M191.622,106.385c-2.98,3.2-5.115,2.435-7.293,0.063l-10.498-8.143    c-3.504-3.84-2.208-8.918-1.506-12.779l10.131-58.36c2.508-16.421,4.161-6.013,5.556-1.668l14.821,60.962    c1.537,8.447-1.018,9.476-4.003,12.696L191.622,106.385z"/>
	</g>
	<g>
		<defs>
			<path id="SVGID_3_" d="M173.947,472.222C10.198,485.894,28.592,889.892,28.592,889.892h65.847     c-2.267-106.772-6.17-53.513,0-172.3c13.756-258.906,153.597-242.327,153.597-242.327s3.919,0.146,2.985-2.402     c-0.923-2.047-3.509-3.978-19.17-3.978C220.492,468.885,202.66,469.997,173.947,472.222"/>
		</defs>
		<clipPath id="SVGID_4_">
			<use xlink:href="#SVGID_3_" overflow="visible"/>
		</clipPath>
		
			<linearGradient id="SVGID_5_" gradientUnits="userSpaceOnUse" x1="307.519" y1="615.2866" x2="324.5581" y2="615.2866" gradientTransform="matrix(0 24.6801 -24.6801 0 15316.4219 -7119.4404)">
			<stop offset="0" style="stop-color:#E2001A"/>
			<stop offset="0.3577" style="stop-color:#CD0419"/>
			<stop offset="1" style="stop-color:#9D0D16"/>
		</linearGradient>
		<rect x="10.198" y="458.686" clip-path="url(#SVGID_4_)" fill="url(#SVGID_5_)" width="241.756" height="431.206"/>
	</g>
	<g>
		<defs>
			<rect id="SVGID_6_" x="26.462" y="18.215" width="593.853" height="1119.325"/>
		</defs>
		<clipPath id="SVGID_7_">
			<use xlink:href="#SVGID_6_" overflow="visible"/>
		</clipPath>
		<path clip-path="url(#SVGID_7_)" fill="#9C9E9F" d="M203.882,626.632l-4.48-15.33l-0.131-20.114    c4.076-0.63,8.042-1.627,10.404-3.032c0,0-7.733-40.397-12.749-208.08l-0.897-84.927L195.64,128.63    c-0.168-4.177-1.333-8.929-6.742-8.929c-0.162,0-0.398,0-0.604,0.051c-0.278-0.051-0.598-0.051-0.85-0.051    c-6.017,0-6.831,8.929-6.831,8.929l-2.519,191.522c-3.2,88.307-9.506,256.871-10.036,267.195c0,0,2.638,1.029,6.642,2.016    l-0.231,19.557l-14.133,36.085l19.999,202.896c0,0,1.658,1.752,5.498,1.469c1.815,0.127,4.276-0.377,7.429-1.469l17.942-200.903    L203.882,626.632z"/>
		<path clip-path="url(#SVGID_7_)" fill="#C6C7C8" d="M193.552,684.31c-83.994-2.382-69.755,191.89-149.158,136.709    c-19.857-13.86-46.221-91.528,62.142-173.213c5.981-4.46,65.007-51.896,80.92-56.661c8.126-2.359,25.696,10.482,25.696,10.482    c11.862,8.584-5.084,17.219-5.084,17.219s20.823,5.362,3.216,19.243c0,0,18.2,4.303-0.305,21.993c0,0,11.191,0.955,4.134,13.399    C208.152,685.611,193.552,684.31,193.552,684.31"/>
	</g>
	<g>
		<path fill="#9C9E9F" d="M377.336,102.167c0,0-18.976-42.674-56.241-24.784l2.729,12.854c0,0,27.832-19.548,42.626,17.197    L377.336,102.167z"/>
		<path fill="#9C9E9F" d="M321.709,91.402c0,0-5.073-22.979-35.753-18.415c0,0-20.151,3.252-28.052,20.397l7.901,7.334    c0,0,1.228-13.483,21.431-18.352c0,0,19.149-5.562,30.917,11.269L321.709,91.402z"/>
		<path fill="#9C9E9F" d="M265.793,107.435c0,0-21.704,3.788-21.042,19.023h-7.277c0,0,4.124-25.256,28.319-25.771V107.435z"/>
		<polygon fill="#9C9E9F" points="314.433,217.198 294.633,221.458 243.235,135.859 247.463,131.746   "/>
		<path fill="#9C9E9F" d="M371.723,383.128c0,0,0.304-2.676-4.575-2.644c-4.853,0.073-7.723,3.347-6.794,7.67    c0.992,4.428,3.588,8.594,6.831,8.227C370.537,396.003,370.689,387.777,371.723,383.128"/>
		<path fill="#9C9E9F" d="M247.432,457.343c0,0,1.186,0.253,3.458,0.472c13.063,1.365,61.22,3.883,96.239-31.226    c0,0-20.34-7.733-38.965-40.218c0,0-36.902-61.151-26.683-77.53c1.186-1.417,2.492-2.761,3.824-4.177    c15.272-13.356,36.945-33.294,49.321-44.678c24.217-16.19,48.686-21.394,63.056,8.09c-2.277-4.563,2.192-12.947,0-17.49    c-14.145-29.044-37.973-24.48-61.812-9.119l-14.459-17.345c0,0-70.043,6.044-68.811,92.893    c0.173,15.361,3.374,46.262,3.374,46.262c1.249,67.404-6.385,86.932-9.71,92.367C246.262,455.644,244.751,456.976,247.432,457.343    "/>
		<path fill="#9C9E9F" d="M329.243,304.738c-4.098,0.451-6.904,3.147-7.277,3.609c-9.8,9.727-4.8,1.659-4.8,1.659    c3.2-3.6,6.249-8.007,10.445-9.654c9.208-3.2,19.973-1.028,24.957,0.745c7.266,2.277,6.772,6.275,6.772,6.275    c-0.042,5.875-4.396,3.515-6.621,1.668c0,0-1.846-2.687-10.524-4.165C342.196,304.875,335.124,303.259,329.243,304.738"/>
		<path fill="#9C9E9F" d="M374.11,335.042c-1.584-7.881-2.545-8.814-2.329-11.857c0.745-11.132,7.853-11.038,7.853-11.038    c0.252,5.835,4.339,5.835,6.27,5.394c3.918-0.661,4.181-5.583,4.181-5.583s1.312,1.165,3.138,0.284    c1.778-0.829-2.015-4.983-8.447-4.785c0,0-4.191-0.366-7.938,1.491c-3.483,1.331,2.041-2.688,2.041-2.688    c7.23-4.469,14.076-0.409,15.823,0.095c4.244,1.416,3.447-0.136,3.447-0.136c0-0.63-2.45-2.635-2.45-2.635    c-7.638-6.053-32.076-11.048-26.536,20.472c0.446,3.264,1.878,7.104,2.785,11.038c0.357,1.731,0.992,3.725,1.826,6.684    c1.605,5.635,2.387,9.832,1.637,11.7c-0.739,1.49-2.198,1.207-3.688,0.923c-3.567-0.64-4.386,1.165-8.2,0.902    c0,0-3.683-0.45-5.839-0.786c-1.978-0.347-0.666-4.629-0.666-4.629c-2.303-0.304-4.555,0.158-4.728,3.138    c0.614,3.484,0.105,3.379-0.205,4.963c-10.172,1.511-11.169,14.807-26.641,11.857c-17.276-3.421-9.711,2.518-6.364,5.435    c6.709,5.74,18.199,4.671,23.341,2.802c3.09-1.228,5.388-2.885,7.192-3.63c5.798-2.644,6.091-2.834,9.716-3.358    c2.712-0.45,9.832-0.892,14.648,0.253c4.9,0.881,8.756,3.934,8.756,3.934s5.325,4.209,13.404-2.076    c5.289-4.271-4.769-5.321-4.769-5.321s-5.398-1.269-8.295-4.028c-5.739-5.204-5.739-5.204-7.665-6.264    c1.653-0.273,2.403-2.025,2.471-3.421c0.147-1.406,0-2.099-0.556-4.628"/>
		<path fill="#9C9E9F" d="M338.943,319.901c2.13-1.459,2.099-4.786,2.099-4.786c11.736,1.942,3.059-3.221,3.059-3.221    s-14.202-10.587-22.543,5.163c0,0,5.876-3.936,9.895-3.464c-0.755,1.659-0.551,4.648,0.566,5.846    c0.415,0.503,1.06,0.766,2.298,0.997C336.431,320.823,337.988,320.508,338.943,319.901"/>
		<path fill="#9C9E9F" d="M390.951,469.872c-10.802,0.431-10.556,3.117-7.958,4.166c2.686,0.986,14.333,1.092,14.333,1.092    s33.445,0.209,55.695,18.078h63.26c-14.894-11.679-32.17-19.17-52.159-20.996C417.376,468.372,402.199,468.907,390.951,469.872"/>
	</g>
	<g>
		<defs>
			<path id="SVGID_8_" d="M381.092,513.007h-27.149h-84.062c-14.815,0-26.662,11.804-26.662,26.535v323.94     c0,14.574,11.847,26.409,26.662,26.409h323.772c14.695,0,26.662-11.835,26.662-26.409v-323.94     c0-14.731-11.967-26.535-26.662-26.535H381.092z"/>
		</defs>
		<clipPath id="SVGID_9_">
			<use xlink:href="#SVGID_8_" overflow="visible"/>
		</clipPath>
		
			<linearGradient id="SVGID_10_" gradientUnits="userSpaceOnUse" x1="309.0269" y1="603.5718" x2="326.0551" y2="603.5718" gradientTransform="matrix(0 22.0896 -22.0896 0 13764.4629 -6311.8159)">
			<stop offset="0" style="stop-color:#E2001A"/>
			<stop offset="0.3577" style="stop-color:#CD0419"/>
			<stop offset="1" style="stop-color:#9D0D16"/>
		</linearGradient>
		<rect x="243.225" y="513.007" clip-path="url(#SVGID_9_)" fill="url(#SVGID_10_)" width="377.09" height="376.885"/>
	</g>
</g>
</svg>