<?xml version="1.0" encoding="UTF-8" standalone="no"?>
<svg
   xmlns:dc="http://purl.org/dc/elements/1.1/"
   xmlns:cc="http://creativecommons.org/ns#"
   xmlns:rdf="http://www.w3.org/1999/02/22-rdf-syntax-ns#"
   xmlns:svg="http://www.w3.org/2000/svg"
   xmlns="http://www.w3.org/2000/svg"
   xmlns:sodipodi="http://sodipodi.sourceforge.net/DTD/sodipodi-0.dtd"
   xmlns:inkscape="http://www.inkscape.org/namespaces/inkscape"
   inkscape:version="1.0 (4035a4f, 2020-05-01)"
   sodipodi:docname="Logo Fédération Française Karaté - 2017.svg"
   viewBox="0 0 437.61392 600"
   height="600"
   width="437.61392"
   xml:space="preserve"
   id="svg833"
   version="1.1"><metadata
     id="metadata839"><rdf:RDF><cc:Work
         rdf:about=""><dc:format>image/svg+xml</dc:format><dc:type
           rdf:resource="http://purl.org/dc/dcmitype/StillImage" /><dc:title></dc:title></cc:Work></rdf:RDF></metadata><defs
     id="defs837" /><sodipodi:namedview
     inkscape:current-layer="g841"
     inkscape:window-maximized="0"
     inkscape:window-y="0"
     inkscape:window-x="0"
     inkscape:cy="355.43843"
     inkscape:cx="450.28712"
     inkscape:zoom="0.4344467"
     showgrid="false"
     id="namedview835"
     inkscape:window-height="900"
     inkscape:window-width="1440"
     inkscape:pageshadow="2"
     inkscape:pageopacity="0"
     guidetolerance="10"
     gridtolerance="10"
     objecttolerance="10"
     borderopacity="1"
     bordercolor="#666666"
     pagecolor="#ffffff" /><g
     transform="matrix(1.3333333,0,0,-1.3333333,-121.70479,743.08197)"
     inkscape:label="Logo Fédération Française Karaté - 2017"
     inkscape:groupmode="layer"
     id="g841"><g
       id="g4741"><g
         id="g4699"
         style="fill:#000000"><path
           d="m 94.560489,215.33567 v -16.26574 h -3.281892 v -4.51959 h 3.281892 v -14.08578 h 4.870936 v 14.08578 h 0.790525 v 0.016 h 16.49331 v 4.50762 H 99.431425 v 11.74614 h 19.487735 v 4.5156 z"
           style="fill:#000000;fill-opacity:1;fill-rule:nonzero;stroke:none;stroke-width:0.999999"
           id="path2567" /><path
           d="m 176.92802,193.74385 6.7674,15.6908 6.7714,-15.6908 z m 4.4597,21.58782 -15.5351,-35.07473 h 5.23027 l 3.89675,8.9753 h 17.43556 l 3.89674,-8.9753 h 5.23027 l -15.53908,35.07473 z"
           style="fill:#000000;fill-opacity:1;fill-rule:nonzero;stroke:none;stroke-width:0.999999"
           id="path2571" /><path
           d="m 240.42386,180.46136 v 34.87111 h -4.92284 v -26.25514 l -21.43611,26.25514 h -3.84485 v -34.87111 h 4.87094 v 25.84391 l 21.3323,-25.84391 z"
           style="fill:#000000;fill-opacity:1;fill-rule:nonzero;stroke:none;stroke-width:0.999999"
           id="path2575" /><path
           id="path2577"
           style="fill:#000000;fill-opacity:1;fill-rule:nonzero;stroke:none;stroke-width:0.999999"
           d="m 339.33859,215.33367 h -4.87093 v -34.87111 h 4.87093 z" /><path
           d="m 419.48904,210.90351 v 4.42776 h -20.64558 v 0.004 h -4.33194 V 200.1116 h -2.33565 v -4.42776 h 2.33565 v -5.70539 c 0,-5.24624 4.26806,-9.51829 9.5143,-9.51829 h 15.46322 v 4.33594 h -15.46322 c -2.85868,0 -5.18236,2.32367 -5.18236,5.18235 v 5.70539 h 17.23593 v 4.42776 h -17.23593 v 10.79191 z"
           style="fill:#000000;fill-opacity:1;fill-rule:nonzero;stroke:none;stroke-width:0.999999"
           id="path2589" /><path
           d="m 370.49901,199.67641 -4.87094,0.97418 c -4.10037,0.77057 -6.40807,2.41152 -6.40807,5.33408 0,2.43546 1.46128,4.23611 3.85682,5.15441 1.02609,0.35533 2.24782,0.55496 3.66518,0.57892 l 0.27948,0.004 c 0.58691,0 1.19777,-0.0319 1.84057,-0.0958 2.64708,-0.24754 5.64949,-1.00214 8.77967,-2.19192 l 1.70083,4.07641 c -2.47939,0.95023 -5.68143,1.95636 -8.99526,2.39155 -1.07799,0.14373 -2.12804,0.21161 -3.12618,0.21161 -1.01412,0 -1.99629,-0.0719 -3.0104,-0.23157 l -0.004,-0.016 c -6.19647,-0.83844 -10.16908,-4.75515 -10.16908,-10.23695 0,-4.97874 3.17809,-8.30854 9.74586,-9.54225 l 5.89703,-1.1259 c 4.25608,-0.77057 5.84512,-2.77084 5.84512,-5.18236 0,-2.69897 -1.83259,-4.64735 -4.93881,-5.39396 l 0.008,0.016 c -0.26351,-0.0799 -0.56295,-0.12377 -0.85042,-0.17966 -0.68273,-0.1078 -1.38941,-0.18366 -2.16796,-0.18366 l -0.004,-0.0439 c -0.0279,0 -0.0479,-0.004 -0.0759,-0.004 -0.5909,0 -1.19377,0.0359 -1.81262,0.0998 l -0.24754,0.028 c -3.39768,0.39127 -6.79536,1.609 -9.21086,2.79081 l -2.16397,-3.66518 c 0.19164,-0.0918 0.39925,-0.19564 0.61485,-0.29945 1.43333,-0.67474 3.69313,-1.62897 6.29229,-2.31968 2.26379,-0.61086 4.40381,-0.9143 6.35218,-0.91829 v -0.028 c 7.94921,0 13.23138,4.25608 13.23138,10.72005 0,5.28217 -3.64122,8.04902 -10.05329,9.27874"
           style="fill:#000000;fill-opacity:1;fill-rule:nonzero;stroke:none;stroke-width:0.999999"
           id="path2593" /><path
           d="m 299.48156,194.93842 6.69155,14.49703 6.64763,-14.49703 z m 4.38384,20.39405 -16.20185,-34.87111 h 5.23027 l 4.63937,9.96546 h 17.23592 l 4.75116,-9.96546 h 5.23027 l -16.26973,34.87111 z"
           style="fill:#000000;fill-opacity:1;fill-rule:nonzero;stroke:none;stroke-width:0.999999"
           id="path2597" /><path
           d="m 281.21515,185.35785 -3.40167,3.46954 c -2.12405,-2.84271 -5.42191,-4.50362 -9.59414,-4.50362 -7.48607,0 -13.23138,5.64151 -13.23138,13.435 0,7.79749 5.74531,13.435 13.23138,13.435 3.64521,0 6.63565,-1.26165 8.74772,-3.47353 l 3.65719,3.07827 c -3.03435,3.21003 -7.34234,5.11448 -12.40491,5.11448 -10.0493,0 -18.15422,-7.7935 -18.15422,-18.15422 0,-9.50631 6.83129,-16.83667 15.72673,-17.97854 l -1.78867,-5.6415 h 4.10436 l 2.30372,5.59758 c 4.43175,0.50307 8.17678,2.52331 10.80389,5.62154"
           style="fill:#000000;fill-opacity:1;fill-rule:nonzero;stroke:none;stroke-width:0.999999"
           id="path2601" /><path
           d="m 135.92032,198.75652 v 12.02562 h 8.84754 c 4.73519,-0.024 7.91328,-2.5273 7.91328,-6.24837 0,-3.77298 -3.20604,-5.77725 -7.97716,-5.77725 z m 22.47418,-18.28997 -9.43045,14.45311 c 0.25553,0.0479 0.51105,0.0958 0.71866,0.13974 4.89889,1.5012 7.82145,4.60742 7.82145,9.47437 0,6.45199 -5.08653,10.78792 -12.65645,10.78792 l -13.79832,-0.0279 v -16.54521 -4.35988 -13.92609 h 4.87093 v 12.70037 1.22172 h 7.43417 l 9.03918,-13.9181 z"
           style="fill:#000000;fill-opacity:1;fill-rule:nonzero;stroke:none;stroke-width:0.999999"
           id="path2605" /></g><g
         id="g4688"><path
           d="m 94.825596,233.83045 h 4.447723 v 13.68653 h 14.469071 v 4.11634 H 99.273319 v 9.90158 h 17.782911 v 4.12033 H 94.825596 v -14.02191 h -3.533425 v -4.11634 h 3.533425 z"
           style="fill:#000000;fill-opacity:1;fill-rule:nonzero;stroke:none;stroke-width:0.999999"
           id="path2609" /><path
           d="m 166.35329,261.5353 h 7.06685 c 7.06286,0 12.26119,-4.95878 12.26119,-11.60641 0,-6.92311 -5.19833,-11.97771 -12.26119,-11.97771 h -7.06685 z m 23.91151,-11.60641 c 0,9.12702 -7.06286,15.72674 -16.84466,15.72674 h -11.51457 v -31.82478 h 11.51457 c 9.7818,0 16.84466,6.73946 16.84466,16.09804"
           style="fill:#000000;fill-opacity:1;fill-rule:nonzero;stroke:none;stroke-width:0.999999"
           id="path2613" /><path
           d="m 284.81725,260.4593 6.06072,-12.93992 h -12.16935 z m -7.88533,-17.06026 h 15.72674 l 4.33593,-9.56619 h 4.77112 l -14.84038,31.82078 h -4.21616 l -14.78449,-31.82078 h 4.77512 z"
           style="fill:#000000;fill-opacity:1;fill-rule:nonzero;stroke:none;stroke-width:0.999999"
           id="path2617" /><path
           d="m 314.09517,233.83045 h 4.44772 v 27.70445 h 11.46666 v 4.12033 H 302.6285 v -4.12033 h 11.46667 z"
           style="fill:#000000;fill-opacity:1;fill-rule:nonzero;stroke:none;stroke-width:0.999999"
           id="path2621" /><path
           id="path2623"
           style="fill:#000000;fill-opacity:1;fill-rule:nonzero;stroke:none;stroke-width:0.999999"
           d="m 342.93191,265.64804 h -4.44773 v -31.82078 h 4.44773 z" /><path
           d="m 367.58283,262.14017 c 6.78338,0 12.02563,-5.61355 12.02563,-12.40092 0,-6.78737 -5.24225,-12.40093 -12.02563,-12.40093 -6.83128,0 -12.07353,5.61356 -12.07353,12.40093 0,6.78737 5.24225,12.40092 12.07353,12.40092 m 0,-28.9661 c 9.17094,0 16.56518,7.39424 16.56518,16.56518 0,9.17093 -7.39424,16.56916 -16.56518,16.56916 -9.17492,0 -16.56916,-7.39823 -16.56916,-16.56916 0,-9.17094 7.39424,-16.56518 16.56916,-16.56518"
           style="fill:#000000;fill-opacity:1;fill-rule:nonzero;stroke:none;stroke-width:0.999999"
           id="path2627" /><path
           d="m 396.36807,257.41816 19.46777,-23.58811 h 3.64921 v 31.82478 h -4.49164 v -23.96341 l -19.5636,23.96341 h -3.50946 v -31.82478 h 4.44772 z"
           style="fill:#000000;fill-opacity:1;fill-rule:nonzero;stroke:none;stroke-width:0.999999"
           id="path2631" /><path
           d="m 144.89163,274.21889 h -4.77112 l -2.6351,-4.96276 h 3.93268 z"
           style="fill:#000000;fill-opacity:1;fill-rule:nonzero;stroke:none;stroke-width:0.999999"
           id="path2635" /><path
           d="m 127.82459,242.73628 c 0,-4.88292 3.96861,-8.90343 8.85153,-8.90343 h 14.38124 v 4.0285 h -14.38124 c -2.65905,0 -4.81903,2.21188 -4.81903,4.87493 v 4.7831 h 1.95636 v 0 h 14.07381 v 4.11634 h -14.98412 v 0 h -1.04605 v 9.90157 h 19.20027 v 4.11634 h -23.23277 v -14.01791 h -3.10622 v -4.11634 h 3.10622 z"
           style="fill:#000000;fill-opacity:1;fill-rule:nonzero;stroke:none;stroke-width:0.999999"
           id="path2639" /><path
           d="m 217.85426,274.21889 h -4.77112 l -2.6351,-4.96276 h 3.93268 z"
           style="fill:#000000;fill-opacity:1;fill-rule:nonzero;stroke:none;stroke-width:0.999999"
           id="path2643" /><path
           d="m 224.02118,237.86215 h -14.38124 c -2.65905,0 -4.82302,2.21188 -4.82302,4.87093 v 4.7831 h 1.95636 v 0.004 h 14.0778 v 4.11634 h -14.98811 v -0.004 h -1.04605 v 9.90158 h 19.20426 v 4.12033 h -19.20426 -4.02851 v -14.02191 h -3.47752 v -4.11634 h 3.47752 v -4.7831 c 0,-4.87892 3.97261,-8.90343 8.85153,-8.90343 h 14.38124 z"
           style="fill:#000000;fill-opacity:1;fill-rule:nonzero;stroke:none;stroke-width:0.999999"
           id="path2647" /><path
           d="m 240.55841,261.5353 h 8.07298 c 4.32395,-0.02 7.1427,-2.30372 7.1427,-5.7014 0,-3.44159 -2.92256,-5.90101 -7.28244,-5.90101 h -8.01309 z m -0.0799,-16.70492 v 1.10994 h 6.78337 l 8.24865,-12.06555 h 5.47382 l -8.6,12.55663 c 0.23157,0.0439 0.46314,0.0878 0.65478,0.12776 4.46769,1.36946 7.13473,4.83501 7.13473,9.27474 0,5.88905 -4.55952,9.84568 -11.47066,9.84568 l -1.32553,-0.024 h -11.26704 l -0.0798,-15.72674 v -3.98059 -12.11745 h 4.44773 z"
           style="fill:#000000;fill-opacity:1;fill-rule:nonzero;stroke:none;stroke-width:0.999999"
           id="path2651" /></g><g
         id="g4708"
         style="fill:#000000"><path
           d="M 140.77369,157.38231 H 126.0451 l -13.87019,-20.0986 h -7.70965 v 20.0986 H 92.020416 v -50.07083 h 12.444844 v 19.68338 h 6.5558 l 16.20185,-19.68338 h 15.17177 l -20.50984,25.10529 z"
           style="fill:#000000;fill-opacity:1;fill-rule:nonzero;stroke:none;stroke-width:0.999999"
           id="path2655" /><path
           d="m 324.08098,146.2654 h 15.97428 v -38.95152 h 12.36898 v 38.95152 h 15.97827 v 11.1193 h -44.32153 z"
           style="fill:#000000;fill-opacity:1;fill-rule:nonzero;stroke:none;stroke-width:0.999999"
           id="path2659" /><path
           d="m 170.69761,126.89424 6.99498,16.27771 7.2545,-16.27771 z m 1.10594,30.48727 -21.95115,-50.06683 h 13.25533 l 3.59731,9.26276 h 22.17473 l 3.67317,-9.26276 h 13.25533 l -22.07492,50.06683 z"
           style="fill:#000000;fill-opacity:1;fill-rule:nonzero;stroke:none;stroke-width:0.999999"
           id="path2663" /><path
           d="m 287.90231,126.89424 6.99498,16.27771 7.2545,-16.27771 z m 1.10594,30.48727 -21.95115,-50.06683 h 13.25533 l 3.59731,9.26276 h 22.17473 l 3.67317,-9.26276 h 13.25533 l -22.07492,50.06683 z"
           style="fill:#000000;fill-opacity:1;fill-rule:nonzero;stroke:none;stroke-width:0.999999"
           id="path2667" /><path
           d="m 236.12306,134.03056 h -9.5103 l 0.0239,13.03175 h 9.51031 c 4.65933,0 7.90529,-2.61114 7.90529,-6.21244 0,-3.67316 -3.27391,-6.81931 -7.92925,-6.81931 m 11.83797,-7.31838 c 5.16639,3.01439 8.0091,8.03305 8.0091,14.13769 0,10.11718 -7.69768,16.53324 -19.61949,16.53324 h -22.16276 v -50.06684 h 12.44484 v 16.54122 h 7.03092 l 10.97158,-16.53722 h 14.50501 l -12.59257,18.6972 c 0.87038,0.38728 1.3974,0.68673 1.41337,0.69471"
           style="fill:#000000;fill-opacity:1;fill-rule:nonzero;stroke:none;stroke-width:0.999999"
           id="path2671" /><path
           d="m 390.82518,161.44714 h 10.78394 l 5.1584,9.44243 h -12.21727 z"
           style="fill:#000000;fill-opacity:1;fill-rule:nonzero;stroke:none;stroke-width:0.999999"
           id="path2675" /><path
           d="m 400.01888,118.39127 c -3.96063,0 -7.18663,3.22599 -7.18663,7.18662 v 2.18394 h 21.4401 v 10.46053 h -21.4401 v 8.34447 h 26.36294 v 10.81588 H 380.7667 v -10.81588 h 0.0399 v -8.34447 h -3.88477 v -10.46053 h 3.88477 v -1.22971 c 0,-10.59629 8.61596,-19.21624 19.21225,-19.21624 h 19.46777 v 11.07539 z"
           style="fill:#000000;fill-opacity:1;fill-rule:nonzero;stroke:none;stroke-width:0.999999"
           id="path2679" /></g></g><g
       id="g4749"><g
         id="g4674"><path
           d="m 247.05552,405.41156 c 17.66313,-9.31866 25.33685,-13.80631 36.61985,-21.31633 0.31542,-0.21161 0.76658,-0.13176 0.99016,0.17168 50.28243,69.22318 85.06171,96.50043 106.47387,106.90906 0.39127,0.19164 0.51105,0.67873 0.26351,1.03407 -10.79192,15.39535 -25.10528,28.82636 -41.99785,39.48652 -6.72349,4.24011 -15.43528,4.10836 -21.86332,-0.57493 -2.69897,-1.96434 -5.23026,-4.26805 -7.50204,-6.96304 0,0 -90.75911,-109.37247 -72.98418,-118.74703"
           style="fill:#1423a0;fill-opacity:1;fill-rule:nonzero;stroke:none;stroke-width:0.999999"
           id="path2683" /><path
           d="m 199.54832,424.46371 c -4.05645,1.65692 -6.51987,5.75329 -6.1805,10.12116 2.72294,34.97492 56.89812,112.1034 58.00007,113.39699 6.03278,7.07483 15.41931,10.33277 24.63416,9.05914 2.93853,-0.40325 5.84912,-0.87836 8.73575,-1.41736 14.06981,-2.64308 29.27352,-7.39424 41.6984,-12.96787 0.0719,-0.0319 0.0679,-0.14772 -0.008,-0.1637 -2.75488,-0.49907 -6.6117,0.40325 -14.20557,-8.31652 -48.91298,-56.12356 -75.79895,-102.24573 -76.56153,-123.56207 -0.004,-0.0559 -0.0399,-0.0918 -0.1078,-0.0679 z"
           style="fill:#1423a0;fill-opacity:1;fill-rule:nonzero;stroke:none;stroke-width:0.999999"
           id="path2687" /><path
           d="m 244.8085,556.64654 c 0.0439,0.004 0.0599,-0.0399 0.02,-0.0479 -12.30111,-4.44373 -73.17583,-111.89178 -57.74854,-126.89187 0.19564,-0.18765 0.024,-0.50306 -0.23556,-0.43519 -9.0791,2.42349 -24.18699,7.0948 -24.18699,7.0948 -10.75598,3.15014 -10.76796,7.60185 -10.17307,12.72432 2.93454,25.34883 16.89656,67.56228 32.95867,89.57332 3.96462,5.42989 9.01123,8.29257 16.31364,9.83769 41.38299,8.75172 43.05189,8.14485 43.05189,8.14485"
           style="fill:#1423a0;fill-opacity:1;fill-rule:nonzero;stroke:none;stroke-width:0.999999"
           id="path2691" /><path
           d="m 145.79515,441.11712 c 0.14772,-0.3234 0.0319,-0.3753 -0.16769,-0.32739 -5.23426,1.31355 -10.6961,2.81476 -15.43128,4.09638 -6.71551,1.82061 -11.826,8.98727 -11.48264,15.93434 0.87837,17.82683 6.16054,33.06248 12.9519,53.97556 1.48923,4.57948 6.06871,10.36472 10.16908,12.88802 10.11717,6.22841 22.58996,9.98941 34.25625,14.38523 0.19564,0.0719 0.31142,-0.13575 0.19165,-0.29545 -22.1428,-33.01057 -38.79182,-95.63404 -30.48727,-100.65669"
           style="fill:#1423a0;fill-opacity:1;fill-rule:nonzero;stroke:none;stroke-width:0.999999"
           id="path2695" /></g><path
         id="path2699"
         style="fill:#dc2d5a;fill-opacity:1;fill-rule:nonzero;stroke:none;stroke-width:0.999999"
         d="m 289.14999,317.05877 c 5.1025,3.47354 47.97073,33.08244 83.08938,49.42403 4.12832,7.60585 7.39424,59.93647 -8.08895,73.4074 -25.65626,-11.68226 -62.79515,-54.29097 -73.7268,-66.34853 -1.46927,-1.62498 -3.74503,-2.20789 -5.82516,-1.51718 l -0.0359,0.008 c -0.1038,0.0359 -0.19563,0.0719 -0.29545,0.1078 -2.47938,1.01012 -33.17027,18.93676 -72.68075,23.66396 -17.92265,-10.60427 -28.54688,-30.58708 -28.54688,-30.58708 32.42367,-7.52999 64.46005,-28.07576 91.7333,-48.15839 5.74531,-3.21801 8.73574,-3.44958 14.37725,0" /></g></g></svg>
